<?xml version="1.0" encoding="utf-8"?>
<!-- Generator: Adobe Illustrator 16.0.0, SVG Export Plug-In . SVG Version: 6.00 Build 0)  -->
<!DOCTYPE svg PUBLIC "-//W3C//DTD SVG 1.1//EN" "http://www.w3.org/Graphics/SVG/1.1/DTD/svg11.dtd">
<svg version="1.1" id="Layer_1" xmlns="http://www.w3.org/2000/svg" xmlns:xlink="http://www.w3.org/1999/xlink" x="0px" y="0px"
	 width="1035.469px" height="856.054px" viewBox="0 0 1035.469 856.054" enable-background="new 0 0 1035.469 856.054"
	 xml:space="preserve">
<g>
	<g transform="matrix(4.51 -11.14 11.14 4.51 173.27 206.92)">

			<ellipse vector-effect="non-scaling-stroke" transform="matrix(1.919273e-006 1 -1 1.919273e-006 4.0022 -12.6154)" fill="#FFFFFF" cx="8.309" cy="-4.307" rx="14.39" ry="6.22"/>
	</g>
	<g transform="matrix(12.02 0 0 12.02 690.78 567.65)">
		<path vector-effect="non-scaling-stroke" fill="#FFFFFF" d="M23.656-11.616H5.886c-1.35,0-2.4,0.46-3.15,1.39
			c-0.75,0.93-1.13,1.98-1.13,3.16c0,1.27,0.4,2.33,1.19,3.2c0.79,0.87,1.88,1.3,3.26,1.3h6.33c1.21,0.6,2.47,1.29,3.27,2.35v12.71
			c-4.04,0.91-8.02,1.37-11.94,1.37c-13.49-0.01-20.24-7.73-20.24-23.19c0-3.56,0.38-6.73,1.15-9.49c0.77-2.77,1.96-5.19,3.58-7.26
			c1.62-2.08,3.78-3.66,6.48-4.77c2.69-1.1,5.86-1.66,9.51-1.66c4.32,0,9.66,0.94,16.03,2.83c0.46,0.23,0.98,0.35,1.56,0.35
			c1.35,0,2.45-0.52,3.31-1.57c0.86-1.04,1.29-2.23,1.29-3.55c0-0.82-0.24-1.63-0.73-2.41c-0.49-0.78-1.21-1.41-2.16-1.88
			c-5.63-2.59-12.23-3.89-19.79-3.89c-5.6,0-10.61,0.87-15.02,2.6c-4.41,1.74-7.99,4.14-10.75,7.2c-2.76,3.06-4.84,6.58-6.25,10.55
			s-2.11,8.3-2.11,12.98c0,7.15,1.39,13.25,4.18,18.28c2.78,5.03,6.67,8.79,11.66,11.28c4.99,2.49,10.88,3.73,17.68,3.73
			c4.62,0,11.04-0.87,19.24-2.6c2.3-0.53,3.93-1.41,4.89-2.65c0.96-1.24,1.45-3.19,1.45-5.87v-18.53
			C28.666-9.636,26.996-11.616,23.656-11.616z"/>
	</g>
</g>
</svg>
