<?xml version="1.0" encoding="utf-8"?>
<!-- Generator: Adobe Illustrator 16.0.0, SVG Export Plug-In . SVG Version: 6.00 Build 0)  -->
<!DOCTYPE svg PUBLIC "-//W3C//DTD SVG 1.1//EN" "http://www.w3.org/Graphics/SVG/1.1/DTD/svg11.dtd">
<svg version="1.1" id="Layer_1" xmlns="http://www.w3.org/2000/svg" xmlns:xlink="http://www.w3.org/1999/xlink" x="0px" y="0px"
	 width="1035.429px" height="855.964px" viewBox="10.473 111.992 1035.429 855.964"
	 enable-background="new 10.473 111.992 1035.429 855.964" xml:space="preserve">
<g>
	<g transform="matrix(4.51 -11.14 11.14 4.51 173.24 206.93)">

			<ellipse vector-effect="non-scaling-stroke" transform="matrix(2.872948e-006 1 -1 2.872948e-006 1.144411e-005 2.670283e-005)" cx="0" cy="0" rx="14.39" ry="6.22"/>
	</g>
	<g transform="matrix(12.02 0 0 12.02 690.71 567.57)">
		<path vector-effect="non-scaling-stroke" d="M24.53-2.3H6.76c-1.35,0-2.4,0.46-3.15,1.39C2.86,0.02,2.48,1.07,2.48,2.25
			c0,1.27,0.4,2.33,1.19,3.2c0.79,0.87,1.88,1.3,3.26,1.3h6.33c1.21,0.6,2.47,1.29,3.27,2.35v12.71c-4.04,0.91-8.02,1.37-11.94,1.37
			C-8.9,23.17-15.65,15.45-15.65-0.01c0-3.56,0.38-6.73,1.15-9.49c0.77-2.77,1.96-5.19,3.58-7.26c1.62-2.08,3.78-3.66,6.48-4.77
			c2.69-1.1,5.86-1.66,9.51-1.66c4.32,0,9.66,0.94,16.03,2.83c0.46,0.23,0.98,0.35,1.56,0.35c1.35,0,2.45-0.52,3.31-1.57
			c0.86-1.04,1.29-2.23,1.29-3.55c0-0.82-0.24-1.63-0.73-2.41c-0.49-0.78-1.21-1.41-2.16-1.88c-5.63-2.59-12.23-3.89-19.79-3.89
			c-5.6,0-10.61,0.87-15.02,2.6c-4.41,1.74-7.99,4.14-10.75,7.2c-2.76,3.06-4.84,6.58-6.25,10.55s-2.11,8.3-2.11,12.98
			c0,7.15,1.39,13.25,4.18,18.28c2.78,5.03,6.67,8.79,11.66,11.28c4.99,2.49,10.88,3.73,17.68,3.73c4.62,0,11.04-0.87,19.24-2.6
			c2.3-0.53,3.93-1.41,4.89-2.65c0.96-1.24,1.45-3.19,1.45-5.87V3.66C29.54-0.32,27.87-2.3,24.53-2.3z"/>
	</g>
</g>
</svg>
